<?xml version="1.0" encoding="UTF-8"?>
<svg xmlns="http://www.w3.org/2000/svg" xmlns:xlink="http://www.w3.org/1999/xlink" width="61px" height="30px" viewBox="0 0 61 30" version="1.1">
<g id="surface1">
<path style=" stroke:none;fill-rule:nonzero;fill:rgb(0%,0%,0%);fill-opacity:1;" d="M 30.511719 2.957031 C 30.5 2.976562 30.378906 3.378906 30.230469 3.859375 C 30.089844 4.335938 29.964844 4.738281 29.957031 4.75 C 29.941406 4.757812 29.480469 4.925781 28.929688 5.117188 C 28.023438 5.425781 27.71875 5.574219 27.984375 5.574219 C 28.097656 5.574219 29.714844 6.203125 29.785156 6.277344 C 29.824219 6.3125 30.292969 7.515625 30.5 8.101562 C 30.558594 8.273438 30.644531 8.082031 30.914062 7.21875 C 31.054688 6.75 31.199219 6.347656 31.234375 6.320312 C 31.269531 6.292969 31.738281 6.105469 32.273438 5.910156 C 32.808594 5.714844 33.246094 5.53125 33.234375 5.511719 C 33.230469 5.496094 32.785156 5.332031 32.25 5.152344 C 31.714844 4.980469 31.253906 4.808594 31.222656 4.777344 C 31.195312 4.75 31.042969 4.320312 30.886719 3.824219 C 30.621094 2.992188 30.566406 2.863281 30.511719 2.957031 Z M 30.511719 2.957031 "/>
<path style=" stroke:none;fill-rule:nonzero;fill:rgb(0%,0%,0%);fill-opacity:1;" d="M 29.167969 17.210938 L 29.167969 26.296875 L 30.417969 27.582031 C 31.109375 28.289062 31.6875 28.867188 31.710938 28.867188 C 31.734375 28.867188 31.75 25.164062 31.75 19.78125 L 31.75 10.699219 L 30.519531 9.421875 C 29.835938 8.722656 29.257812 8.148438 29.226562 8.140625 C 29.175781 8.125 29.167969 9.910156 29.167969 17.210938 Z M 29.167969 17.210938 "/>
<path style=" stroke:none;fill-rule:nonzero;fill:rgb(0%,0%,0%);fill-opacity:1;" d="M 9.878906 11.996094 L 8.617188 13.246094 L 8.617188 26.265625 L 11.203125 26.265625 L 11.203125 21.101562 L 24.039062 21.101562 L 24.039062 26.265625 L 26.625 26.265625 L 26.625 13.304688 L 25.375 12.023438 L 24.121094 10.734375 L 17.632812 10.734375 L 11.136719 10.738281 Z M 20.070312 13.425781 L 22.796875 13.453125 L 24.039062 14.765625 L 24.039062 17.480469 L 23.46875 17.992188 L 22.902344 18.5 L 12.398438 18.5 L 11.796875 17.96875 L 11.203125 17.433594 L 11.203125 14.722656 L 12.453125 13.386719 L 14.902344 13.390625 C 16.246094 13.390625 18.574219 13.410156 20.070312 13.425781 Z M 20.070312 13.425781 "/>
<path style=" stroke:none;fill-rule:nonzero;fill:rgb(0%,0%,0%);fill-opacity:1;" d="M 34.335938 13.855469 C 34.335938 15.570312 34.324219 19.078125 34.304688 21.644531 L 34.277344 26.308594 L 35.589844 26.300781 L 36.898438 26.285156 L 36.914062 23.691406 L 36.921875 21.101562 L 48.421875 21.101562 L 49.070312 21.753906 L 49.714844 22.402344 L 49.714844 26.265625 L 52.34375 26.265625 L 52.34375 21.035156 L 51.722656 20.40625 L 51.097656 19.777344 L 51.722656 19.148438 L 52.34375 18.523438 L 52.34375 13.269531 L 51.085938 12 L 49.828125 10.734375 L 34.335938 10.734375 Z M 49.136719 14.007812 L 49.761719 14.675781 L 49.761719 17.390625 L 49.136719 17.945312 L 48.515625 18.5 L 36.921875 18.5 L 36.921875 13.335938 L 42.71875 13.34375 L 48.511719 13.34375 Z M 49.136719 14.007812 "/>
</g>
</svg>
