<svg xmlns="http://www.w3.org/2000/svg"
 width="31" height="29" viewBox="0 0 31 29"
 preserveAspectRatio="xMidYMid meet">
<g transform="translate(0.000000,29.000000) scale(0.006888,-0.006444)"
fill="#000000" stroke="none">
<path d="M683 3508 l-252 -251 0 -1298 0 -1299 262 0 262 0 0 515 0 515 1293
0 1292 0 0 -515 0 -515 260 0 260 0 0 1294 0 1294 -251 256 -251 256 -1312 0
-1311 0 -252 -252z m2694 -380 c55 -57 115 -119 132 -139 l31 -37 0 -264 c0
-196 -3 -268 -12 -280 -7 -9 -59 -57 -116 -107 l-103 -91 -1058 0 -1058 0
-116 107 -117 106 0 275 0 274 123 129 122 128 1036 0 1036 1 100 -102z"/>
</g>
</svg>
