<svg width="20" height="20" viewBox="0 0 20 20" fill="none" xmlns="http://www.w3.org/2000/svg">
<path d="M18.3332 9.79167C18.3332 14.2792 14.604 17.9167 9.99984 17.9167C9.31192 17.9167 8.64567 17.8358 8.0065 17.6817C7.81275 17.635 7.61025 17.6529 7.43192 17.7421L5.60817 18.6542C5.13734 18.8896 4.58317 18.5471 4.58317 18.0204V16.3433C4.58317 16.1038 4.47609 15.8804 4.29942 15.7188C2.67692 14.2354 1.6665 12.1292 1.6665 9.79167C1.6665 5.30417 5.39567 1.66667 9.99984 1.66667C14.604 1.66667 18.3332 5.30417 18.3332 9.79167Z" fill="url(#paint0_radial_127_2945)"/>
<path opacity="0.05" d="M14.58 7.20499C14.4017 7.20499 14.2287 7.26415 14.08 7.37624L11.7075 9.13249C11.6521 9.17415 11.5908 9.19499 11.5262 9.19499C11.4637 9.19499 11.405 9.1754 11.3554 9.13832L9.70041 7.89249C9.36374 7.64207 8.96707 7.50999 8.55166 7.50999C7.89499 7.50999 7.29124 7.83957 6.93666 8.39165L6.43207 9.17957L4.71541 11.9692C4.55207 12.225 4.53957 12.5408 4.68582 12.8083C4.83499 13.0808 5.11666 13.25 5.42082 13.25C5.59916 13.25 5.77207 13.1908 5.92082 13.0787L8.29332 11.3225C8.34874 11.2808 8.40999 11.26 8.47457 11.26C8.53707 11.26 8.59582 11.2796 8.64541 11.3167L10.3004 12.5625C10.6375 12.8133 11.0337 12.945 11.4492 12.945C12.1058 12.945 12.7096 12.6154 13.0642 12.0633L13.5687 11.2754L15.2854 8.48582C15.4487 8.22999 15.4612 7.91415 15.315 7.64665C15.1658 7.37415 14.8842 7.20499 14.58 7.20499Z" fill="black"/>
<path opacity="0.07" d="M14.58 7.41333C14.4471 7.41333 14.3175 7.45791 14.2054 7.5425L11.8317 9.3C11.7417 9.36791 11.6367 9.40333 11.5267 9.40333C11.4188 9.40333 11.3167 9.36916 11.2308 9.305L9.57543 8.05875C9.27584 7.83583 8.92209 7.71833 8.55168 7.71833C7.96626 7.71833 7.42834 8.01208 7.11209 8.50458L6.60793 9.2925L4.89334 12.0792C4.76959 12.2729 4.76001 12.5096 4.86918 12.7087C4.98001 12.9112 5.19709 13.0421 5.42126 13.0421C5.55418 13.0421 5.68376 12.9975 5.79584 12.9129L8.16959 11.1554C8.25959 11.0875 8.36459 11.0521 8.47459 11.0521C8.58251 11.0521 8.68459 11.0862 8.77043 11.1504L10.4258 12.3967C10.7254 12.6196 11.0792 12.7371 11.4496 12.7371C12.035 12.7371 12.5729 12.4433 12.8892 11.9508L13.3933 11.1629L15.1079 8.37625C15.2317 8.1825 15.2413 7.94583 15.1321 7.74666C15.0213 7.54416 14.8046 7.41333 14.58 7.41333Z" fill="black"/>
<path d="M14.3308 7.70874L11.9558 9.46708C11.7016 9.65874 11.3558 9.65874 11.1058 9.47124L9.44992 8.22499C8.74992 7.70416 7.75825 7.88333 7.28742 8.61666L6.78325 9.40416L5.07075 12.1875C4.82075 12.5792 5.29992 13.025 5.67075 12.7458L8.04575 10.9875C8.29992 10.7958 8.64575 10.7958 8.89575 10.9833L10.5516 12.2296C11.2516 12.7504 12.2433 12.5712 12.7141 11.8379L13.2183 11.0504L14.9308 8.26708C15.1808 7.87541 14.7016 7.42958 14.3308 7.70874Z" fill="white"/>
<defs>
<radialGradient id="paint0_radial_127_2945" cx="0" cy="0" r="1" gradientUnits="userSpaceOnUse" gradientTransform="translate(4.61942 17.9075) scale(19.8383 19.8383)">
<stop stop-color="#1292FF"/>
<stop offset="0.079" stop-color="#2982FF"/>
<stop offset="0.23" stop-color="#4E69FF"/>
<stop offset="0.351" stop-color="#6559FF"/>
<stop offset="0.428" stop-color="#6D53FF"/>
<stop offset="0.754" stop-color="#DF47AA"/>
<stop offset="0.946" stop-color="#FF6257"/>
</radialGradient>
</defs>
</svg>
