<svg width="20" height="20" viewBox="0 0 20 20" fill="none" xmlns="http://www.w3.org/2000/svg">
<path d="M3.61111 20H16.3889C18.3833 20 20 18.3833 20 16.3889V3.61111C20 1.61667 18.3833 0 16.3889 0H3.61111C1.61667 0 0 1.61667 0 3.61111V16.3889C0 18.3833 1.61667 20 3.61111 20Z" fill="#00C300"/>
<path d="M17.2851 9.12055C17.2851 5.86222 14.0184 3.21111 10.0034 3.21111C5.98841 3.21111 2.72119 5.86222 2.72119 9.12055C2.72119 12.0417 5.31175 14.4883 8.81119 14.9511C9.04841 15.0022 9.37119 15.1078 9.45286 15.31C9.52619 15.4939 9.50064 15.7822 9.47619 15.9683C9.47619 15.9683 9.39119 16.4822 9.3723 16.5917C9.34064 16.7756 9.22619 17.3117 10.0029 16.9844C10.7801 16.6572 14.1962 14.515 15.724 12.7561H15.7234C16.7795 11.5994 17.2851 10.4244 17.2851 9.12055ZM7.15286 11.0594H5.70619C5.49564 11.0594 5.32452 10.8883 5.32452 10.6772V7.78333C5.32452 7.57277 5.49564 7.40166 5.70619 7.40166C5.91675 7.40166 6.08786 7.57277 6.08786 7.78333V10.295H7.15286C7.36341 10.295 7.53452 10.4661 7.53452 10.6767C7.53452 10.8878 7.36341 11.0594 7.15286 11.0594ZM8.64897 10.6772C8.64897 10.8878 8.47786 11.0594 8.2673 11.0594C8.05675 11.0594 7.88564 10.8883 7.88564 10.6772V7.78333C7.88564 7.57277 8.05675 7.40166 8.2673 7.40166C8.47786 7.40166 8.64897 7.57277 8.64897 7.78333V10.6772ZM12.1323 10.6772C12.1323 10.8422 12.0279 10.9878 11.8712 11.0394C11.8317 11.0528 11.7906 11.0594 11.7501 11.0594C11.6306 11.0594 11.5167 11.0022 11.4451 10.9067L9.9623 8.88722V10.6772C9.9623 10.8878 9.79119 11.0594 9.58008 11.0594C9.36952 11.0594 9.19786 10.8883 9.19786 10.6772V7.78333C9.19786 7.61888 9.30286 7.47333 9.45897 7.42111C9.49841 7.40777 9.53897 7.40166 9.58008 7.40166C9.69897 7.40166 9.81341 7.45888 9.88508 7.55444L11.3684 9.57388V7.78333C11.3684 7.57277 11.5401 7.40166 11.7506 7.40166C11.9612 7.40166 12.1323 7.57277 12.1323 7.78333V10.6772ZM14.4734 8.84833C14.684 8.84833 14.8556 9.01944 14.8556 9.23055C14.8556 9.44111 14.6845 9.61222 14.4734 9.61222H13.4084V10.2955H14.4734C14.684 10.2955 14.8556 10.4667 14.8556 10.6772C14.8556 10.8878 14.684 11.0594 14.4734 11.0594H13.0267C12.8167 11.0594 12.6451 10.8883 12.6451 10.6772V9.2311V9.22999V7.78499C12.6451 7.78444 12.6451 7.78444 12.6451 7.78388C12.6451 7.57333 12.8162 7.40222 13.0267 7.40222H14.4734C14.684 7.40222 14.8556 7.57333 14.8556 7.78388C14.8556 7.99444 14.6845 8.16555 14.4734 8.16555H13.4084V8.84888L14.4734 8.84833Z" fill="white"/>
</svg>
