<svg width="94" height="30" viewBox="0 0 94 30" fill="none" xmlns="http://www.w3.org/2000/svg">
<path d="M2.37976 2.1394C9.12975 16.4251 13.6298 24.7585 15.8798 27.1394C18.1297 24.7585 22.6297 16.4251 29.3798 2.1394" stroke="url(#paint0_linear_14_332)" stroke-width="3" stroke-linecap="round" stroke-linejoin="round"/>
<path opacity="0.6" d="M6.37976 4.1394C10.4512 13.5838 13.6179 19.2505 15.8798 21.1394C18.1416 19.2505 21.3083 13.5838 25.3798 4.1394" stroke="url(#paint1_linear_14_332)" stroke-linecap="round" stroke-linejoin="round"/>
<path d="M41.7503 17.5108V24.8769H39.2658V6.04615H45.3484C47.1761 6.04615 48.5849 6.51692 49.5749 7.45846C50.5839 8.38153 51.0884 9.61846 51.0884 11.1692V12.36C51.0884 13.4677 50.8219 14.4277 50.2888 15.24C49.7748 16.0523 49.0323 16.6523 48.0614 17.04C48.88 18.3138 49.6415 19.6062 50.3459 20.9169C51.0503 22.2277 51.6976 23.5477 52.2878 24.8769H49.4321C48.3469 22.3662 47.0809 19.9108 45.634 17.5108H41.7503ZM45.3484 8.26153H41.7503V15.2954H45.3484C46.3194 15.2954 47.0904 15.0369 47.6616 14.52C48.2327 13.9846 48.5183 13.2646 48.5183 12.36V11.1692C48.5183 10.2461 48.2327 9.53538 47.6616 9.03692C47.0904 8.52 46.3194 8.26153 45.3484 8.26153ZM58.9012 24.8769H56.4168V6.04615H58.9012V24.8769ZM66.6631 17.5385C66.6631 19.2738 67.0153 20.6123 67.7197 21.5538C68.4432 22.4769 69.5474 22.9385 71.0323 22.9385C71.6796 22.9385 72.3174 22.8646 72.9457 22.7169C73.5739 22.5692 74.3259 22.3108 75.2017 21.9415L76.0298 23.9908C75.0969 24.3969 74.2117 24.6923 73.374 24.8769C72.5363 25.0615 71.7272 25.1538 70.9467 25.1538C68.7002 25.1538 66.9963 24.4708 65.835 23.1046C64.6737 21.7385 64.093 19.8831 64.093 17.5385V13.3846C64.093 11.04 64.6737 9.18461 65.835 7.81846C66.9963 6.4523 68.7002 5.76923 70.9467 5.76923C71.7272 5.76923 72.5363 5.86153 73.374 6.04615C74.2307 6.23077 75.0969 6.52615 75.9727 6.9323L75.1731 9.00923C73.631 8.34461 72.2508 8.0123 71.0323 8.0123C69.5474 8.0123 68.4432 8.47384 67.7197 9.39692C67.0153 10.32 66.6631 11.6492 66.6631 13.3846V17.5385ZM91.0592 24.8769V16.4862H82.5778V24.8769H80.0933V6.04615H82.5778V14.2154H91.0592V6.04615H93.5437V24.8769H91.0592Z" fill="#2C2C2C"/>
<defs>
<linearGradient id="paint0_linear_14_332" x1="2.37976" y1="2.1394" x2="2494.99" y2="2694.16" gradientUnits="userSpaceOnUse">
<stop stop-color="#60A5FA"/>
<stop offset="0.3" stop-color="#3B82F6"/>
<stop offset="0.7" stop-color="#2563EB"/>
<stop offset="1" stop-color="#1E40AF"/>
</linearGradient>
<linearGradient id="paint1_linear_14_332" x1="6.37976" y1="4.1394" x2="1695.91" y2="1892.44" gradientUnits="userSpaceOnUse">
<stop stop-color="#60A5FA"/>
<stop offset="0.3" stop-color="#3B82F6"/>
<stop offset="0.7" stop-color="#2563EB"/>
<stop offset="1" stop-color="#1E40AF"/>
</linearGradient>
</defs>
</svg>
